<?xml version="1.0" encoding="UTF-8"?>
<svg version="1.1" viewBox="0 0 2048 2048" width="1280" height="1280" xmlns="http://www.w3.org/2000/svg">
<path transform="translate(562,64)" d="m0 0h85l14 3 14 7 10 8 9 11 7 14 2 8 1 10v131h960v-142l6-16 10-14 7-7 11-7 12-5 4-1h85l14 3 14 7 10 8 9 11 7 14 2 8 1 9v132h75l12 3 12 6 12 10 9 12 6 13 2 10v1295l-1 11-5 13-7 11-11 11-13 8-12 4-12 1-924 1-8 16-16 35-13 25-13 21-10 15-13 18-13 16-9 11-16 17-18 18-8 7-14 12-13 10-18 13-15 10-22 13-26 14-27 12-24 9-25 8-36 9-37 6-31 3-23 1h-15l-38-2-32-4-30-6-30-8-33-11-28-12-25-12-18-10-21-13-20-14-13-10-11-9-14-12-15-14-16-16-7-8-13-15-13-17-11-15-14-21-14-24-16-32-12-30-9-27-8-30-6-31-4-30-1-12v-72l2-19 4-27 7-34 9-31 8-23 10-24 12-25 9-17 6-10 11-23 12-24 16-27 15-22 9-12 13-16 9-11 15-16 22-22 8-7 13-11 16-12 15-11 22-14 26-15 29-14 1-1 1-696 7-16 9-12 9-8 10-6 12-5 80-1 1-141 6-16 10-14 7-7 11-7 12-5z" fill="#E0E7F6"/>
<path transform="translate(562,64)" d="m0 0h85l14 3 14 7 10 8 9 11 7 14 2 8 1 10v131h960v-142l6-16 10-14 7-7 11-7 12-5 4-1h85l14 3 14 7 10 8 9 11 7 14 2 8 1 9v132h75l12 3 12 6 12 10 9 12 6 13 2 11-1 330h-374l-1225-1v-337l7-16 9-12 9-8 10-6 12-5 80-1 1-141 6-16 10-14 7-7 11-7 12-5z" fill="#FDD661"/>
<path transform="translate(385,639)" d="m0 0 1183 1 1 5v407l-1 196-2 26-4 16-8 18-7 11-7 9-11 12-7 7-16 11-15 8-21 7-20 3-14 1-383 1-2-7-8-40-8-30-8-25-8-21-6-12-5-13-12-22-13-22-12-18-10-14-10-13-9-11-11-13-30-30-8-7-13-11-17-13-12-9-12-8-11-7-20-12-8-4-17-9-17-7-8-4-16-6-20-7-27-8-22-5-23-4-49-5h-51l-5 1-36 3-29 5-30 7-27 8-35 13-3 1-1-1v-358z" fill="#FCFCFC"/>
<path transform="translate(517,1120)" d="m0 0h44l24 2 27 4 32 7 26 8 21 8 12 5 17 9 12 6 21 13 12 8 16 12 14 11v2l4 2 12 11 11 11 7 8 8 9v2l4 2 14 19 10 14 4 5 4 8 5 7 14 28 7 17 5 12 10 30 6 26 4 24 3 25 1 17v26l-3 34-5 30-7 28-10 30-6 15-7 15-13 25-15 24-14 19-8 10-10 11-7 8-11 12-10 9-15 13-5 4h-2l-1 3-7 4-8 7-10 6h-2v2l-10 6-22 12-30 15-40 13-23 6-21 4-24 3-25 2h-32l-35-4-23-4-26-6-36-12-21-9-16-8-15-8-24-15-12-9-13-10-9-6-15-15-4-3v-2l-4-2-4-4v-2l-3-1-7-8-9-10-11-14-6-8-12-18-8-13-7-12-11-23-9-21-7-21-7-24-5-24-5-39-1-24v-15l2-31 5-34 4-17 8-28 9-24 11-25 12-22 14-23 12-16 10-13 9-11h2l2-4 16-17 13-12h2v-2l11-9 13-10 10-7 15-10 13-8 18-10 26-12 20-8 26-8 26-6 30-5z" fill="#FCFCFC"/>
<path transform="translate(550,960)" d="m0 0h51l49 5 33 6 30 8 24 8 16 6 13 6 12 5 21 10 6 4 11 6 8 5 15 9 12 8 26 20 13 11 8 7 10 9 28 28 9 11 13 16 10 14 20 30 15 27 8 16 4 9 7 16 7 18 12 41 8 36 5 30 2 24v59l-2 22-4 28-2 12-2 10-7 26-2 9-2 7h-2l-1 9-5 14-4 10-4 9-7 17-8 16-9 16-7 14-11 25-15 29-13 21-10 15-13 18-13 16-9 11-16 17-18 18-8 7-14 12-13 10-18 13-15 10-22 13-26 14-27 12-24 9-25 8-36 9-37 6-31 3-23 1h-15l-38-2-32-4-30-6-30-8-33-11-28-12-25-12-18-10-21-13-20-14-13-10-11-9-14-12-15-14-16-16-7-8-13-15-13-17-11-15-14-21-14-24-16-32-12-30-9-27-8-30-6-31-4-30-1-12v-72l2-19 4-27 7-34 9-31 8-23 10-24 12-25 9-17 6-10 11-23 12-24 16-27 15-22 9-12 13-16 9-11 15-16 22-22 8-7 13-11 16-12 15-11 22-14 26-15 29-14 4-2 18-7 23-8 23-7 34-8 25-4 36-3zm-33 160-32 4-30 6-26 7-25 9-20 9-16 8-19 10-27 18-16 12-15 12v2l-4 2-16 15-13 14v2l-3 1-8 10-11 14-13 18-13 22-7 12-13 28-10 26-7 23-6 25-5 34-2 31v15l1 24 5 39 5 24 7 24 4 12 5 13 11 26 11 21 9 15 12 18 8 11 9 11 12 14 7 8h2l2 4 4 4h2l2 4 16 14 3 3 13 10 19 14 19 12 18 10 16 8 20 9 36 12 24 6 21 4 33 4 9 1h32l35-3 30-5 21-5 26-8 23-8 32-16 28-16v-2l5-2 11-7 8-7 4-2v-2l4-1 5-5 15-13 16-15 7-8 10-11 9-11 13-18 10-15 10-17 14-27 11-27 9-27 7-28 5-30 3-34v-26l-2-28-5-33-5-23-8-27-8-22-7-15-6-13-8-15-5-9-4-6-3-5-9-13-12-16-7-9h-2l-2-4-9-11-23-23-6-5h-2l-1-3-14-11-19-14-16-10-22-13-19-9-8-4-23-9-22-7-24-6-27-5-24-3-15-1z" fill="#285EB7"/>
<path transform="translate(1857,256)" d="m0 0h74l12 3 12 6 12 10 9 12 6 13 2 11-1 330h-374l-1225-1v-335h1l2 91v115l2 1h1332l35-1 20-2 13-5 11-7 8-8 8-14 5-14 3-13 1-8-2-1 10-6 7-7 9-14 4-11 2-10 1-134z" fill="#FABA44"/>
<path transform="translate(517,1120)" d="m0 0h44l24 2 27 4 32 7 26 8 21 8 12 5 17 9 12 6 21 13 12 8 16 12 14 11v2l4 2 12 11 11 11 7 8 8 9v2l4 2 14 19 10 14 4 5 4 8 5 7 14 28 7 17 5 12 10 30 6 26 4 24 3 25 1 17v26l-3 34-5 30-7 28-10 30-6 15-7 15-13 25-15 24-14 19-8 10-10 11-7 8-11 12-10 9-15 13-5 4h-2l-1 3-7 4-8 7-10 6h-2v2l-10 6-22 12-30 15-40 13-23 6-21 4-24 3-25 2h-32l-35-4-23-4-26-6-36-12-21-9-16-8-15-8-24-15-12-9-13-10-9-6-15-15-4-3v-2l-4-2-4-4v-2l-3-1-7-8-9-10-11-14-6-8-12-18-8-13-7-12-11-23-9-21-7-21-7-24-5-24-5-39-1-24v-15l2-31 5-34 4-17 8-28 9-24 11-25 12-22 14-23 12-16 10-13 9-11h2l2-4 16-17 13-12h2v-2l11-9 13-10 10-7 15-10 13-8 18-10 26-12 20-8 26-8 26-6 30-5zm-12 66-24 4-25 6-27 9-23 10-21 11-19 12-14 10-9 7 1 4 39 39 7 10 4 9v12l-6 12-5 6-8 5-6 2h-12l-9-4-8-6-12-11-29-29h-2l-1-2-8 9-13 19-12 20-8 16-10 23-10 31-6 27-3 17v8l67 1 10 3 10 9 5 11 1 4v9l-4 10-5 7-9 6-8 3-15 1h-52l1 16 5 26 7 25 11 28 11 23 13 22 11 16 7 9 4 4 5-3 40-40 12-7 3-1h13l10 4 9 8 5 10 1 3v13l-5 10-11 13-35 35 1 4 16 12 20 13 26 14 26 11 24 8 25 6 25 4h6l1-66 2-9 7-10 10-6 6-2h11l11 4 9 8 5 10 1 16 1 54 5 1 24-4 23-5 30-10 25-11 21-11 11-7 19-13 11-8-1-4-35-35-7-8-6-9-2-7v-11l4-10 4-5v-2l4-2 6-4 6-2h13l10 4 10 8 39 39 4-2 7-9 12-17 9-15 12-23 9-21 9-27 5-21 4-23 1-10-1-1-66-1-11-4-9-8-5-10-1-4v-10l4-11 6-8 8-5 9-2 66-1-1-12-4-22-8-31-7-20-9-21-8-16-13-22-12-16-8-10-5 3-7 8-30 30-13 9-6 2h-12l-9-4-8-6-6-9-2-7v-11l4-10 6-8 41-41-2-4-11-9-12-8-16-10-20-11-28-12-28-9-27-6-18-3h-7l-1 63-2 10-4 8-8 7-9 5 3 3 9 6 7 8 3 7 1 8v142l1 19 102 1 10 4 8 7 6 12 1 4v9l-4 10-6 8-9 6-8 2h-136l-11-4-6-4-6-7-3-7-1-7v-198l2-9 6-9 10-7 5-2v-2l-11-6-8-9-4-11-1-67z" fill="#FDD763"/>
<path transform="translate(1983,311)" d="m0 0h1v1294l-1 11-5 13-7 11-11 11-13 8-12 4-12 1h-923l2-3v2h250l2-5 15-12 13-10 15-13 11-9 14-12 11-9 13-11 11-9 13-11 11-9 13-11 11-9 13-11 10-8 14-12 10-8 14-12 10-8 14-12 10-8 14-12 10-8 14-12 11-9 13-11 10-8 14-12 10-8 14-12 11-9 13-11 11-9 13-11 11-9 17-14 11-9 9-8h2l1-3 13-10 15-13 9-7 13-11 11-9 12-11 12-9 14-12 11-9 3-3 3 1 8 11 7 10 10 14 4 4 2 1 3 7 26 36 12 17 13 18 12 17 13 18 30 42 12 17 5 9z" fill="#AAADCB"/>
<path transform="translate(511,1024)" d="m0 0h76l28 3 41 8 22 6 36 12 26 11 29 14 19 11 21 13 16 11 20 15 11 9 11 10 8 7 10 9 13 14 5 6v2h2l9 11 8 9 12 16-1 2-7-7-9-12-6-6v-2h-2l-9-11-1-3h-2l-7-8v-2h-2l-20-20-11-9-11-10-20-15-17-12-9-6v115l1 4-6-4-5-5-15-12-19-13-16-10-17-10-19-9-8-4-23-9-22-7-24-6-27-5-24-3-15-1h-44l-32 4-30 6-26 7-25 9-20 9-16 8-19 10-27 18-16 12-10 8h-2l-1 3h-2v2l-8 7-10 9-14 15-9 11-7 8-14 19-11 17-12 21-8 16-12 27-10 30-6 23-4 21-4 32-1 21v15l1 24 5 39 5 24 7 24 4 12 5 13 11 26 11 21 9 15 12 18 8 11 18 22v3l-69-1h-34l-16 1-10-16-10-18-14-28-12-30-9-27-8-30-6-31-4-30-1-12v-72l2-19 4-27 7-34 9-31 8-23 10-24 12-25 9-17 6-10 8-16 5-5 16-21 7-10 14-17 11-12 20-20 8-7 9-8 8-7 16-13 14-10 11-8 21-13 15-9 16-8 26-12 19-8 36-12 32-8 21-4 29-4z" fill="#3478E8"/>
<path transform="translate(1983,311)" d="m0 0h1v1294l-1 11-5 13-7 11-11 11-13 8-12 4-12 1h-923l2-3v2l410-1 4-1v-2l14-5 27-11 43-19 41-18 29-13 41-18 40-18 92-41 31-14 92-41 30-13 29-13 33-15 20-9h5z" fill="#8287B0"/>
<path transform="translate(1714,64)" d="m0 0h85l14 3 14 7 10 8 9 11 7 14 2 8 1 9 1 133-1 134-4 16-6 12-8 10-9 8-8 4-11 5-12 2h-75l-12-2-15-6-11-8-7-7-4-6-6-11-3-11-1-8v-131l-1-2 1-142 6-16 10-14 7-7 11-7 12-5z" fill="#60668C"/>
<path transform="translate(562,64)" d="m0 0h85l14 3 14 7 10 8 9 11 7 14 2 8 1 10v265l-4 17-6 12-4 5-7 8-14 9-11 5-9 2h-80l-17-4-11-6-9-7-7-7-6-10-1-6h-2l-3-11-1-7v-132l-1-3 1-141 6-16 10-14 7-7 11-7 12-5z" fill="#60668C"/>
<path transform="translate(840,353)" d="m0 0h335l9 2 12 6 8 7 8 13 3 11v14l-4 13-6 10-7 8-11 7-11 3-10 1-31 1h-260l-33-1-12-3-11-6-8-8-6-9-5-14v-11l4-16 6-10 9-9 10-6z" fill="#FFE696"/>
<path transform="translate(1663,768)" d="m0 0h192l1 1v191h-192l-1-64z" fill="#FBBA44"/>
<path transform="translate(512,768)" d="m0 0h191v192l-67 1h-122l-2-1-1-191z" fill="#FBBA44"/>
<path transform="translate(1280,1088)" d="m0 0h191l1 164v28h-191l-1-1-1-190z" fill="#FBBA44"/>
<path transform="translate(1280,768)" d="m0 0h191l1 192h-191l-1-1-1-190z" fill="#FBBA44"/>
<path transform="translate(896,768)" d="m0 0h191v191l-2 1h-188l-1-1-1-190z" fill="#FBBA44"/>
<path transform="translate(1663,1088)" d="m0 0h192l1 137-3 1-9-12-10-14-8-11-1-3h-5l-2 4-14 12-10 8-14 11-13 12-14 11-10 9-9 7-13 11-12 9-7 1-38-1-1-78z" fill="#FED762"/>
<path transform="translate(537,1184)" d="m0 0h20l17 1 2 1v63l-2 10-4 8-9 8-8 5 10 6 7 7 5 10 1 8v161h102l10 4 8 7 6 10 2 7v9l-4 10-7 9-9 6-8 2h-136l-11-4-6-4-7-8-3-7-1-7v-198l2-9 6-9 9-7 7-2v-2l-6-2-8-6-6-7-4-11v-67l2-1z" fill="#8388B1"/>
<path transform="translate(562,64)" d="m0 0h46l1 5v195l-1 33-3 14-8 15-14 14-16 8-16 4-37 2v43h-1l-1-7v-132l-1-3 1-141 6-16 10-14 7-7 11-7 12-5z" fill="#8287B0"/>
<path transform="translate(1714,64)" d="m0 0h46l1 5v189l-1 38-3 15-8 15-13 13-14 8-14 4-8 1-14 1h-21v36h-1v-131l-1-2 1-142 6-16 10-14 7-7 11-7 12-5z" fill="#8287B0"/>
<path transform="translate(903,1088)" d="m0 0h184v191l-5 1-53 1-10-26-6-12-5-13-12-22-13-22-12-18-10-14-10-13-9-11-11-13-28-28z" fill="#FBBA44"/>
<path transform="translate(1663,768)" d="m0 0h192v1h-64l1 12v61l-1 28-1 9-4 6h-2l-2 4-8 5-6 1-36 1-58 1-9-1v63h182v1h-183l-1-64z" fill="#FED763"/>
<path transform="translate(1280,768)" d="m0 0h191v1h-64l1 13v60l-1 33-3 9-8 7-6 3-10 1-66 2h-28l-5-1v63h-1l-1-190z" fill="#FED763"/>
<path transform="translate(1280,1088)" d="m0 0h191v1h-64l1 12v69l-1 25-4 10h-2v2l-11 7-8 1-68 2h-27l-6-1v63h-1l-1-190z" fill="#FED763"/>
<path transform="translate(896,768)" d="m0 0h191v1h-64l1 13v60l-1 33-3 9-8 7-6 3-8 1-73 2h-27l-1 62h-1l-1-190z" fill="#FED763"/>
<path transform="translate(512,768)" d="m0 0h191v1h-64l1 11v68l-1 26-3 7-5 7-9 6-5 1-78 2h-25l-1 63h-1l-1-191z" fill="#FED762"/>
<path transform="translate(1336,352)" d="m0 0h38l24 1 15 4 9 6 7 7 7 11 3 12v13l-4 13-7 11-5 6-9 6-10 4-15 2h-69l-10-3-11-6-8-8-6-10-5-13v-11l4-16 7-11 7-7 12-7 11-3z" fill="#FFE696"/>
<path transform="translate(1791,1089)" d="m0 0h64l1 136-3 1-9-12-10-14-8-11-1-3h-5l-2 4-14 12-10 8-14 11-13 12-14 11-10 9-9 7-13 11-12 9-7 1-35-1-2-1v-63l101-1 9-1 9-7 5-7 1-5 1-23z" fill="#FBBA45"/>
<path transform="translate(903,1088)" d="m0 0h184v1h-64l1 14v67l-1 20-3 10-7 8-5 4-6 1-1 4-14-25-16-24-10-14-10-13-9-11-11-13-28-28z" fill="#FED763"/>
<path transform="translate(226,1472)" d="m0 0h67l10 3 10 9 6 12 1 4v9l-4 10-6 8-9 6-8 3-15 1h-38l-14-1-1-3-1-17v-26l1-17z" fill="#8489B2"/>
<path transform="translate(745,1257)" d="m0 0 4 2 9 7 6 5 12 12 7 8 8 9-1 4-3 1-2 4-35 35-13 9-6 2h-12l-9-4-8-6-6-8-3-9v-11l4-10 6-8z" fill="#8489B1"/>
<path transform="translate(341,1257)" d="m0 0 4 2 39 39 7 10 4 9v12l-6 12-6 7-8 5-6 2h-12l-9-4-8-6-12-11-29-29-2-1 1-5 9-10 7-8 12-12 11-9z" fill="#8489B1"/>
<path transform="translate(718,1653)" d="m0 0h13l10 4 10 8 40 40-3 6-12 13-7 8-12 11-5 4h-2v2l-5 2-37-37-7-8-6-9-2-7v-11l4-10 5-7 10-7z" fill="#8489B1"/>
<path transform="translate(356,1653)" d="m0 0h13l10 4 10 9 5 10 1 3v13l-5 10-11 13-36 36-4-2-10-8-7-7-6-5-7-8-9-10-4-6 10-9 35-35 12-7z" fill="#8388B1"/>
<path transform="translate(538,1728)" d="m0 0h11l11 4 10 9 5 10 1 16v55l-1 1-21 1h-27l-13-1-2-1v-66l2-9 8-11 10-6z" fill="#8489B1"/>
<path transform="translate(796,1472)" d="m0 0h66l1 1 1 36-1 22-1 5h-67l-11-4-10-9-5-10-1-4v-10l4-11 7-9 8-5z" fill="#8489B1"/>
<path transform="translate(1965,640)" d="m0 0h17l1 1v768l-3-4-6-12 4-40v-63l-1-41v-23l-1-51-1-419v-81l3-17 1-11-1-5-13-1z" fill="#FCFCFC"/>
<path transform="translate(959,1262)" d="m0 0 3 2 6 11 9 17 14 32 10 28 6 19 8 32 4 20 4 31 1 22v4h-2l-3-30-3-24-8-37-9-31-10-29-13-30-6-12-11-23z" fill="#3478E8"/>
<path transform="translate(384,305)" d="m0 0h1l2 91v51l-1 62-2-1z" fill="#EAB760"/>
<path transform="translate(1949,263)" d="m0 0 4 1 9 7 5 4 9 12 6 13 2 11-1 12h-1l-1-16-3-11h-2l-2-4v-3l-4-2-4-6v-2l-3-1v-2l-4-1-6-7z" fill="#FED866"/>
<path transform="translate(1022,1528)" d="m0 0h1v13l-2 28-4 25-2 2v-8l3-19 3-38z" fill="#3478E9"/>
<path transform="translate(343,1660)" d="m0 0m-2 1 2 1-45 45-2-2 10-9z" fill="#979BBE"/>
<path transform="translate(1007,1652)" d="m0 0 5 2 2 5v3l-4 1h-8l1-6 2-3h2z" fill="#F8F9FB"/>
<path transform="translate(513,960)" d="m0 0 32 1v1l-22 2h-7l-3-2z" fill="#CFC7B7"/>
<path transform="translate(807,1101)" d="m0 0 11 7 1 3-4-1-9-6z" fill="#3878E5"/>
<path transform="translate(1357,1573)" d="m0 0 2 1-7 7-4 3h-2v-2z" fill="#9397BC"/>
</svg>
